<svg xmlns="http://www.w3.org/2000/svg" viewBox="0 0 556.35 467"><defs><style>.a,.b{fill:#fff;}.a{stroke:#fff;stroke-miterlimit:10;}.c{fill:#602c90;}.d{fill:#991d20;}.e{fill:#262a6a;}.f{fill:#623f17;}</style></defs><title>logo</title><path class="a" d="M151.66,513.25c-62.41,0-113-48.58-113-108.51s50.6-108.51,113-108.51S214.07,513.25,151.66,513.25Z" transform="translate(-38.15 -46.75)"/><path class="a" d="M481,513.25c62.41,0,113-48.58,113-108.51S543.4,296.23,481,296.23,418.58,513.25,481,513.25Z" transform="translate(-38.15 -46.75)"/><path class="b" d="M317.48,46.75C190.54,46.75,87.63,138,87.63,250.53c0,74,44.55,138.86,111.18,174.55q-.09-1.13-.17-2.25c-.67-9.34-.37-18.71-.85-28-48.36-32.32-79.63-83.73-79.63-141.64C118.15,155.31,207.39,76,317.48,76S516.8,155.31,516.8,253.13c0,59.23-32.73,111.67-83,143.83a6.74,6.74,0,0,1,.36,1.26c1.54,8.52,3,17.06,4.18,25.64,65.39-35.92,109-100.11,109-173.33C547.32,138,444.42,46.75,317.48,46.75Z" transform="translate(-38.15 -46.75)"/><rect class="c" x="176.85" y="422.53" width="36" height="36"/><rect class="c" x="176.85" y="381.97" width="36" height="36"/><rect class="c" x="176.85" y="341.42" width="36" height="36"/><rect class="d" x="230.85" y="422.53" width="36" height="36"/><rect class="d" x="230.85" y="381.97" width="36" height="36"/><rect class="d" x="230.85" y="341.42" width="36" height="36"/><rect class="d" x="230.85" y="300.86" width="36" height="36"/><rect class="d" x="230.85" y="260.31" width="36" height="36"/><rect class="d" x="230.85" y="219.75" width="36" height="36"/><rect class="e" x="284.85" y="422.53" width="36" height="36"/><rect class="e" x="284.85" y="381.97" width="36" height="36"/><rect class="e" x="284.85" y="341.42" width="36" height="36"/><rect class="e" x="284.85" y="300.86" width="36" height="36"/><rect class="f" x="338.85" y="422.53" width="36" height="36"/><rect class="f" x="338.85" y="381.97" width="36" height="36"/><rect class="f" x="338.85" y="341.42" width="36" height="36"/><rect class="f" x="338.85" y="300.86" width="36" height="36"/><rect class="f" x="338.85" y="260.31" width="36" height="36"/></svg>